<svg xmlns="http://www.w3.org/2000/svg" xmlns:xlink="http://www.w3.org/1999/xlink" viewBox="0 0 80 80" version="1.1" style="max-width:100%" height="100%">
<g id="surface1" style="" fill="currentColor">
<path style="" d="M 33 9 L 33 15.074219 C 31.84375 15.121094 29.128906 15.296875 25.816406 16.566406 C 23.757813 17.355469 21.652344 18.550781 20.042969 20.40625 C 18.574219 22.09375 17.65625 24.414063 17.484375 27.230469 C 16.738281 27.429688 15.082031 27.941406 13.085938 29.394531 C 10.566406 31.230469 8 34.484375 8 39.621094 C 8 43.175781 9.988281 46.351563 13.328125 48.539063 C 13.933594 48.9375 14.601563 49.296875 15.296875 49.628906 L 19.605469 67.917969 C 20.027344 69.714844 21.640625 71 23.492188 71 C 30.273438 71 49.726563 71 56.511719 71 C 58.359375 71 59.972656 69.714844 60.394531 67.917969 L 64.609375 50.007813 C 65.484375 49.25 66.59375 48.035156 67.625 46.328125 C 68.90625 44.207031 70 41.371094 70 38 C 70 30.109375 65.367188 24.683594 60.84375 21.324219 C 56.574219 18.148438 52.578125 16.820313 52.113281 16.671875 C 51.839844 16.253906 50.734375 14.660156 48.1875 12.921875 C 45.285156 10.945313 40.691406 9 34 9 Z M 35 11.074219 C 40.710938 11.261719 44.613281 12.90625 47.0625 14.578125 C 49.660156 16.347656 50.640625 18.015625 50.640625 18.015625 L 50.839844 18.339844 L 51.09375 18.421875 L 51.128906 18.503906 L 51.828125 19.066406 L 52.417969 18.917969 C 53.953125 19.523438 56.753906 20.773438 59.65625 22.925781 C 61.648438 24.410156 63.613281 26.269531 65.140625 28.5625 L 65.078125 28.613281 L 65 28.957031 L 64.996094 29.058594 L 65.363281 29.875 L 66.015625 30.019531 C 67.230469 32.285156 68 34.929688 68 38 C 68 40.9375 67.046875 43.414063 65.914063 45.292969 C 65.003906 46.804688 64.042969 47.789063 63.363281 48.386719 C 61.085938 46.542969 57.574219 45.207031 52 45.207031 C 46.839844 45.207031 43.023438 46.453125 39.316406 47.652344 C 35.613281 48.851563 32.011719 50 27 50 C 21.652344 50 17.335938 48.777344 14.421875 46.867188 C 11.511719 44.957031 10 42.445313 10 39.621094 C 10 35.132813 12.105469 32.582031 14.265625 31.011719 C 16.421875 29.441406 18.5625 28.980469 18.5625 28.980469 L 19.351563 28.808594 L 19.351563 28 C 19.351563 25.21875 20.226563 23.238281 21.550781 21.71875 C 22.875 20.199219 24.679688 19.144531 26.53125 18.433594 C 30.238281 17.011719 34 17 34 17 L 35 17 L 35 16.171875 L 35.09375 15.9375 L 35 15.785156 Z M 38.335938 16.296875 L 37.441406 16.316406 L 36.921875 17.046875 L 37.195313 17.902344 L 37.484375 18.105469 L 37.574219 18.144531 L 38.46875 18.125 L 38.988281 17.394531 L 38.714844 16.542969 L 38.425781 16.339844 Z M 41.125 18.484375 L 40.40625 19.015625 L 40.402344 19.914063 L 40.613281 20.199219 L 40.6875 20.265625 L 41.546875 20.519531 L 42.265625 19.984375 L 42.265625 19.09375 L 42.054688 18.808594 L 41.984375 18.738281 Z M 52.796875 21 L 52.25 21.714844 L 52.246094 22.066406 L 52.265625 22.164063 L 52.792969 22.890625 L 53.6875 22.898438 L 54.230469 22.1875 L 54.234375 21.832031 L 54.21875 21.734375 L 53.6875 21.011719 Z M 53.222656 25.007813 L 52.535156 25.578125 L 52.453125 25.921875 L 52.449219 26.023438 L 52.804688 26.84375 L 53.675781 27.054688 L 54.363281 26.480469 L 54.449219 26.136719 L 54.453125 26.035156 L 54.097656 25.214844 Z M 22.066406 27.605469 L 21.175781 27.707031 L 20.726563 28.484375 L 21.078125 29.308594 L 21.386719 29.484375 L 21.480469 29.515625 L 22.371094 29.414063 L 22.816406 28.640625 L 22.464844 27.8125 L 22.160156 27.640625 Z M 52.5625 28.925781 L 51.699219 29.152344 L 51.476563 29.425781 L 51.425781 29.515625 L 51.394531 30.40625 L 52.09375 30.96875 L 52.964844 30.746094 L 53.183594 30.46875 L 53.230469 30.382813 L 53.265625 29.488281 Z M 25.03125 29.285156 L 24.496094 30 L 24.75 30.863281 L 25.03125 31.074219 L 25.121094 31.121094 L 26.015625 31.121094 L 26.550781 30.40625 L 26.300781 29.546875 L 26.019531 29.332031 L 25.929688 29.285156 Z M 28.703125 31.5 L 27.972656 32.015625 L 27.949219 32.914063 L 28.152344 33.203125 L 28.222656 33.269531 L 29.078125 33.546875 L 29.808594 33.03125 L 29.832031 32.136719 L 29.625 31.84375 L 29.558594 31.777344 Z M 65.316406 32.027344 L 64.511719 32.417969 L 64.347656 32.730469 L 64.316406 32.824219 L 64.464844 33.707031 L 65.257813 34.125 L 66.0625 33.734375 L 66.226563 33.421875 L 66.253906 33.324219 L 66.109375 32.4375 Z M 30.601563 34.980469 L 30.019531 35.65625 L 29.996094 36.011719 L 30.003906 36.109375 L 30.492188 36.859375 L 31.386719 36.921875 L 31.96875 36.242188 L 31.996094 35.890625 L 31.984375 35.792969 L 31.496094 35.039063 Z M 63.859375 35.746094 L 62.964844 35.777344 L 62.6875 35.996094 L 62.625 36.074219 L 62.398438 36.9375 L 62.960938 37.640625 L 63.859375 37.605469 L 64.128906 37.386719 L 64.199219 37.308594 L 64.421875 36.441406 Z M 60.175781 38.160156 L 59.839844 38.25 L 59.746094 38.292969 L 59.183594 38.988281 L 59.40625 39.859375 L 60.234375 40.199219 L 60.578125 40.109375 L 60.667969 40.070313 L 61.230469 39.375 L 61.007813 38.503906 Z M 56.234375 38.992188 L 56.132813 38.996094 L 55.34375 39.421875 L 55.21875 40.3125 L 55.855469 40.941406 L 56.203125 40.996094 L 56.300781 40.988281 L 57.089844 40.5625 L 57.214844 39.671875 L 56.582031 39.042969 Z M 52 47.207031 C 57.605469 47.207031 60.691406 48.566406 62.511719 50.207031 L 58.449219 67.457031 C 58.234375 68.371094 57.445313 69 56.511719 69 C 49.726563 69 30.273438 69 23.492188 69 C 22.558594 69 21.765625 68.371094 21.550781 67.457031 L 17.578125 50.578125 C 19.339844 51.175781 21.324219 51.578125 23.46875 51.800781 L 23.46875 51.820313 L 23.484375 51.921875 L 23.980469 52.664063 L 24.875 52.710938 L 25.449219 52.023438 L 25.453125 51.941406 C 25.964844 51.964844 26.46875 52 27 52 C 28.820313 52 30.464844 51.847656 32 51.609375 L 32 51.699219 L 32.402344 52.5 L 33.28125 52.65625 L 33.9375 52.046875 L 34 51.699219 L 34 51.597656 L 33.835938 51.273438 C 36.03125 50.808594 38.011719 50.175781 39.933594 49.554688 C 43.644531 48.355469 47.160156 47.207031 52 47.207031 Z M 46.71875 50.640625 L 46.0625 51.253906 L 46 51.597656 L 46 51.699219 L 46.402344 52.5 L 47.28125 52.65625 L 47.9375 52.046875 L 48 51.699219 L 48 51.597656 L 47.597656 50.796875 Z M 55.375 50.707031 L 54.652344 51.234375 L 54.546875 51.574219 L 54.53125 51.671875 L 54.832031 52.515625 L 55.6875 52.78125 L 56.414063 52.253906 L 56.515625 51.921875 L 56.53125 51.820313 L 56.230469 50.972656 Z M 32.71875 54.738281 L 32.0625 55.355469 L 32 55.699219 L 32 55.800781 L 32.402344 56.601563 L 33.28125 56.761719 L 33.9375 56.144531 L 34 55.800781 L 34 55.699219 L 33.597656 54.898438 Z M 46.71875 54.738281 L 46.0625 55.355469 L 46 55.699219 L 46 55.800781 L 46.402344 56.601563 L 47.28125 56.761719 L 47.9375 56.144531 L 48 55.800781 L 48 55.699219 L 47.597656 54.898438 Z M 54.867188 54.777344 L 54.140625 55.300781 L 54.035156 55.640625 L 54.027344 55.738281 L 54.324219 56.582031 L 55.179688 56.847656 L 55.90625 56.324219 L 56.011719 55.988281 L 56.019531 55.890625 L 55.722656 55.042969 Z M 24.570313 54.847656 L 23.996094 55.535156 L 23.980469 55.890625 L 23.988281 55.988281 L 24.488281 56.734375 L 25.382813 56.78125 L 25.957031 56.09375 L 25.972656 55.738281 L 25.964844 55.640625 L 25.464844 54.894531 Z M 32.71875 58.84375 L 32.0625 59.453125 L 32 59.800781 L 32 59.902344 L 32.402344 60.703125 L 33.28125 60.859375 L 33.9375 60.246094 L 34 59.902344 L 34 59.800781 L 33.597656 59 Z M 46.71875 58.84375 L 46.0625 59.453125 L 46 59.800781 L 46 59.902344 L 46.402344 60.703125 L 47.28125 60.859375 L 47.9375 60.246094 L 48 59.902344 L 48 59.800781 L 47.597656 59 Z M 54.359375 58.84375 L 53.632813 59.371094 L 53.53125 59.707031 L 53.515625 59.808594 L 53.8125 60.652344 L 54.671875 60.917969 L 55.394531 60.390625 L 55.5 60.058594 L 55.515625 59.957031 L 55.214844 59.109375 Z M 25.078125 58.917969 L 24.503906 59.605469 L 24.484375 59.957031 L 24.5 60.058594 L 24.996094 60.800781 L 25.890625 60.847656 L 26.464844 60.160156 L 26.484375 59.808594 L 26.46875 59.707031 L 25.972656 58.964844 Z M 53.847656 62.914063 L 53.125 63.4375 L 53.019531 63.777344 L 53.007813 63.875 L 53.308594 64.71875 L 54.160156 64.984375 L 54.886719 64.460938 L 54.992188 64.125 L 55.003906 64.027344 L 54.703125 63.179688 Z M 32.71875 62.941406 L 32.0625 63.550781 L 32 63.902344 L 32 64 L 32.402344 64.800781 L 33.28125 64.957031 L 33.9375 64.347656 L 34 64 L 34 63.902344 L 33.597656 63.097656 Z M 46.71875 62.941406 L 46.0625 63.550781 L 46 63.902344 L 46 64 L 46.402344 64.800781 L 47.28125 64.957031 L 47.9375 64.347656 L 48 64 L 48 63.902344 L 47.597656 63.097656 Z M 25.589844 62.984375 L 25.015625 63.671875 L 24.996094 64.027344 L 25.007813 64.125 L 25.503906 64.871094 L 26.402344 64.917969 L 26.972656 64.230469 L 26.992188 63.875 L 26.980469 63.777344 L 26.484375 63.03125 Z " fill="currentColor"></path>
</g>
</svg>