<svg xmlns="http://www.w3.org/2000/svg" xmlns:xlink="http://www.w3.org/1999/xlink" viewBox="0 0 80 80" version="1.1" style="max-width:100%" height="100%">
<g id="surface1" style="" fill="currentColor">
<path style="" d="M 18 10 C 17.484375 10 17.054688 10.390625 17.003906 10.90625 L 15.070313 31.109375 C 15.066406 31.167969 15.0625 31.226563 15.066406 31.285156 C 15.035156 31.503906 15 31.722656 15 32 C 15 35.300781 17.699219 38 21 38 L 22 38 L 22 64 C 22 67.300781 24.699219 70 28 70 C 31.300781 70 34 67.300781 34 64 L 34 38 L 35 38 C 38.300781 38 41 35.300781 41 32 C 41 31.722656 40.964844 31.507813 40.933594 31.289063 L 40.933594 31.285156 C 40.9375 31.226563 40.9375 31.167969 40.929688 31.109375 L 38.996094 10.90625 C 38.945313 10.390625 38.515625 10 38 10 Z M 49 10 C 48.449219 10 48 10.449219 48 11 L 48 64 C 48 67.300781 50.699219 70 54 70 C 57.300781 70 60 67.300781 60 64 L 60 45.796875 C 62.808594 45.300781 65 42.949219 65 40 C 65 39.753906 64.96875 39.589844 64.945313 39.421875 C 64.953125 39.335938 64.953125 39.253906 64.941406 39.171875 L 62.5 21.734375 C 61.554688 15.011719 55.789063 10 49 10 Z M 18.90625 12 L 22 12 C 22 12.550781 22.449219 13 23 13 C 23.550781 13 24 12.550781 24 12 L 27 12 C 27 12.550781 27.449219 13 28 13 C 28.550781 13 29 12.550781 29 12 L 32 12 C 32 12.550781 32.449219 13 33 13 C 33.550781 13 34 12.550781 34 12 L 37.09375 12 L 38.902344 30.890625 L 39.144531 30.589844 C 38.96875 30.808594 38.890625 31.09375 38.933594 31.375 C 38.972656 31.625 39 31.828125 39 32 C 39 34.21875 37.21875 36 35 36 L 33 36 C 32.449219 36 32 36.449219 32 37 L 32 64 C 32 66.21875 30.21875 68 28 68 C 25.78125 68 24 66.21875 24 64 L 24 37 C 24 36.449219 23.550781 36 23 36 L 21 36 C 18.78125 36 17 34.21875 17 32 C 17 31.828125 17.027344 31.625 17.066406 31.375 C 17.109375 31.109375 17.039063 30.835938 16.875 30.621094 L 17.097656 30.890625 Z M 50 12.183594 C 55.34375 12.660156 59.761719 16.613281 60.515625 22.015625 L 62.898438 39 L 63.175781 38.675781 C 62.988281 38.894531 62.902344 39.179688 62.941406 39.464844 C 62.976563 39.710938 63 39.882813 63 40 C 63 42.21875 61.21875 44 59 44 C 58.449219 44 58 44.449219 58 45 L 58 64 C 58 66.21875 56.21875 68 54 68 C 51.78125 68 50 66.21875 50 64 Z M 23 15 C 22.449219 15 22 15.449219 22 16 C 22 16.550781 22.449219 17 23 17 C 23.550781 17 24 16.550781 24 16 C 24 15.449219 23.550781 15 23 15 Z M 28 15 C 27.449219 15 27 15.449219 27 16 C 27 16.550781 27.449219 17 28 17 C 28.550781 17 29 16.550781 29 16 C 29 15.449219 28.550781 15 28 15 Z M 33 15 C 32.449219 15 32 15.449219 32 16 C 32 16.550781 32.449219 17 33 17 C 33.550781 17 34 16.550781 34 16 C 34 15.449219 33.550781 15 33 15 Z M 23 19 C 22.449219 19 22 19.449219 22 20 C 22 20.550781 22.449219 21 23 21 C 23.550781 21 24 20.550781 24 20 C 24 19.449219 23.550781 19 23 19 Z M 28 19 C 27.449219 19 27 19.449219 27 20 C 27 20.550781 27.449219 21 28 21 C 28.550781 21 29 20.550781 29 20 C 29 19.449219 28.550781 19 28 19 Z M 33 19 C 32.449219 19 32 19.449219 32 20 C 32 20.550781 32.449219 21 33 21 C 33.550781 21 34 20.550781 34 20 C 34 19.449219 33.550781 19 33 19 Z M 23 23 C 22.449219 23 22 23.449219 22 24 C 22 24.550781 22.449219 25 23 25 C 23.550781 25 24 24.550781 24 24 C 24 23.449219 23.550781 23 23 23 Z M 28 23 C 27.449219 23 27 23.449219 27 24 C 27 24.550781 27.449219 25 28 25 C 28.550781 25 29 24.550781 29 24 C 29 23.449219 28.550781 23 28 23 Z M 33 23 C 32.449219 23 32 23.449219 32 24 C 32 24.550781 32.449219 25 33 25 C 33.550781 25 34 24.550781 34 24 C 34 23.449219 33.550781 23 33 23 Z M 28 51 C 27.449219 51 27 51.449219 27 52 C 27 52.550781 27.449219 53 28 53 C 28.550781 53 29 52.550781 29 52 C 29 51.449219 28.550781 51 28 51 Z M 54 51 C 53.449219 51 53 51.449219 53 52 C 53 52.550781 53.449219 53 54 53 C 54.550781 53 55 52.550781 55 52 C 55 51.449219 54.550781 51 54 51 Z M 28 55 C 27.449219 55 27 55.449219 27 56 C 27 56.550781 27.449219 57 28 57 C 28.550781 57 29 56.550781 29 56 C 29 55.449219 28.550781 55 28 55 Z M 54 55 C 53.449219 55 53 55.449219 53 56 C 53 56.550781 53.449219 57 54 57 C 54.550781 57 55 56.550781 55 56 C 55 55.449219 54.550781 55 54 55 Z M 28 59 C 27.449219 59 27 59.449219 27 60 C 27 60.550781 27.449219 61 28 61 C 28.550781 61 29 60.550781 29 60 C 29 59.449219 28.550781 59 28 59 Z M 54 59 C 53.449219 59 53 59.449219 53 60 C 53 60.550781 53.449219 61 54 61 C 54.550781 61 55 60.550781 55 60 C 55 59.449219 54.550781 59 54 59 Z M 28 63 C 27.449219 63 27 63.449219 27 64 C 27 64.550781 27.449219 65 28 65 C 28.550781 65 29 64.550781 29 64 C 29 63.449219 28.550781 63 28 63 Z M 54 63 C 53.449219 63 53 63.449219 53 64 C 53 64.550781 53.449219 65 54 65 C 54.550781 65 55 64.550781 55 64 C 55 63.449219 54.550781 63 54 63 Z " fill="currentColor"></path>
</g>
</svg>