<svg xmlns="http://www.w3.org/2000/svg" viewBox="0 0 80 80" style="max-width:100%" height="100%">
    <path style="line-height:normal;text-indent:0;text-align:start;text-decoration-line:none;text-decoration-style:solid;text-decoration-color:#000;text-transform:none;block-progression:tb;isolation:auto;mix-blend-mode:normal" d="M 10.533203 7.9746094 C 9.5389688 7.9611738 8.9296875 8.0019531 8.9296875 8.0019531 A 1.0001 1.0001 0 0 0 8.0058594 9.1113281 C 8.9735245 17.820314 5.9855702 26.641964 6 35.001953 C 6.00559 38.288519 6.2588127 41.287336 7.3203125 43.960938 C 8.3818123 46.634538 10.286125 48.940125 13.371094 50.705078 C 15.152552 51.724087 17.548949 52.021908 19.015625 52 C 22.851465 51.942311 25.591824 50.002047 27.193359 48.449219 C 27.138068 50.251806 26.616855 51.946994 25.972656 54.275391 C 25.070776 57.535153 24 61.900881 24 69 A 1.0001 1.0001 0 0 0 24.039062 69.287109 C 24.022324 69.525805 24 69.766566 24 70 A 1.0001 1.0001 0 1 0 26 70 C 26 67.73906 27.167785 64.571449 28.878906 61.414062 C 30.196809 58.98225 31.817722 56.550641 33.392578 54.433594 C 33.636948 55.416605 34.068187 56.65157 34.896484 58.017578 C 36.709422 61.007431 40.380374 64 47 64 C 52.244808 64 56.295371 62.247751 59.373047 59.5 C 62.450722 56.752249 64.573596 53.057794 66.226562 49.150391 C 69.532499 41.335584 71.112115 32.521539 73.824219 28.564453 A 1.0001 1.0001 0 0 0 73.443359 27.103516 C 73.443359 27.103516 61.172874 21 48.486328 21 C 44.221759 21 40.620601 21.795482 37.628906 23.09375 C 35.083735 18.533581 31.524761 15.010312 26.496094 12.132812 C 20.197588 8.5283279 13.516032 8.0159658 10.533203 7.9746094 z M 10.505859 9.9746094 C 13.29303 10.013253 19.668412 10.527673 25.503906 13.867188 C 30.245451 16.580388 33.463804 19.76683 35.830078 23.972656 C 31.240146 26.487137 28.372353 30.262126 26.992188 33.978516 L 26.951172 33.689453 L 26.919922 33.595703 L 26.289062 32.957031 L 25.402344 33.080078 L 24.970703 33.865234 L 25.017578 34.214844 L 25.048828 34.310547 L 25.679688 34.947266 L 26.566406 34.824219 L 26.902344 34.214844 C 26.306433 35.895707 26 37.557978 26 39.078125 C 26 41.613141 26.461499 43.717588 27.142578 45.46875 A 1.0001 1.0001 0 0 0 27.117188 45.515625 C 27.007519 45.682597 24.178159 49.921885 18.984375 50 C 17.907051 50.01609 15.541776 49.641741 14.365234 48.96875 C 11.612204 47.393703 10.087985 45.515305 9.1777344 43.222656 C 8.2674841 40.930007 8.0054115 38.180481 8 34.998047 C 7.986968 27.447846 10.705635 18.878262 10.013672 9.9824219 C 10.229486 9.9786919 10.187085 9.9702994 10.505859 9.9746094 z M 16.027344 15.154297 L 15.291016 15.662109 L 15.257812 16.558594 L 15.457031 16.847656 L 15.527344 16.919922 L 16.376953 17.205078 L 17.113281 16.697266 L 17.148438 15.800781 L 16.947266 15.511719 L 16.876953 15.439453 L 16.027344 15.154297 z M 18.863281 18.205078 L 18.074219 18.626953 L 17.939453 19.513672 L 18.105469 19.824219 L 18.167969 19.902344 L 18.978516 20.283203 L 19.769531 19.859375 L 19.904297 18.974609 L 19.736328 18.664062 L 19.675781 18.585938 L 18.863281 18.205078 z M 28.134766 19.626953 L 27.333984 20.027344 L 27.175781 20.910156 L 27.789062 21.564453 L 28.134766 21.626953 L 28.935547 21.224609 L 29.09375 20.34375 L 28.482422 19.689453 L 28.134766 19.626953 z M 21.267578 21.613281 L 20.431641 21.935547 L 20.189453 22.798828 L 20.316406 23.126953 L 20.367188 23.212891 L 21.126953 23.689453 L 21.962891 23.367188 L 22.205078 22.503906 L 22.078125 22.175781 L 22.025391 22.089844 L 21.267578 21.613281 z M 26 23 L 25.199219 23.402344 L 25.041016 24.283203 L 25.652344 24.9375 L 26 25 L 26.800781 24.597656 L 26.958984 23.716797 L 26.347656 23.0625 L 26 23 z M 48.486328 23 C 59.775342 23 70.256514 27.882985 71.619141 28.529297 C 68.797782 33.417389 67.35618 41.347053 64.384766 48.371094 C 62.795858 52.127066 60.792434 55.551344 58.041016 58.007812 C 55.289597 60.464281 51.808692 62 47 62 C 40.959626 62 38.129484 59.492569 36.607422 56.982422 C 35.156342 54.589337 35.018205 52.266268 35.007812 52.048828 A 1.0001 1.0001 0 0 0 34.316406 51.039062 C 33.749887 50.767356 28 47.800866 28 39.078125 C 28 32.938472 33.686577 23 48.486328 23 z M 23.279297 25.267578 L 22.410156 25.486328 L 22.064453 26.314453 L 22.152344 26.65625 L 22.193359 26.746094 L 22.888672 27.310547 L 23.757812 27.091797 L 24.101562 26.265625 L 24.015625 25.923828 L 23.974609 25.832031 L 23.279297 25.267578 z M 15.009766 25.742188 L 14.208984 26.144531 L 14.050781 27.027344 L 14.664062 27.681641 L 15.009766 27.742188 L 15.810547 27.341797 L 15.96875 26.458984 L 15.357422 25.804688 L 15.009766 25.742188 z M 19 26 L 18.199219 26.402344 L 18.041016 27.283203 L 18.652344 27.9375 L 19 28 L 19.800781 27.597656 L 19.958984 26.716797 L 19.347656 26.0625 L 19 26 z M 44 27 A 1.0001 1.0001 0 1 0 44 29 A 1.0001 1.0001 0 1 0 44 27 z M 24.927734 29.068359 L 24.046875 29.222656 L 23.640625 30.021484 L 23.701172 30.369141 L 23.736328 30.462891 L 24.386719 31.078125 L 25.269531 30.923828 L 25.675781 30.125 L 25.615234 29.777344 L 25.580078 29.683594 L 24.927734 29.068359 z M 64.972656 29.998047 A 1.0001 1.0001 0 0 0 64.804688 30.019531 C 64.756168 30.029231 64.739294 30.032967 64.757812 30.029297 A 1.0001 1.0001 0 1 0 65.150391 31.990234 C 65.198911 31.980534 65.213843 31.976799 65.195312 31.980469 A 1.0001 1.0001 0 0 0 64.972656 29.998047 z M 44.53125 30.636719 L 43.730469 31.039062 L 43.572266 31.919922 L 44.183594 32.574219 L 44.53125 32.636719 L 45.332031 32.236328 L 45.490234 31.353516 L 44.878906 30.699219 L 44.53125 30.636719 z M 60.876953 31.09375 L 60.527344 31.148438 L 60.427734 31.183594 L 59.802734 31.824219 L 59.941406 32.708984 L 60.734375 33.126953 L 61.082031 33.072266 L 61.181641 33.037109 L 61.808594 32.396484 L 61.667969 31.511719 L 60.876953 31.09375 z M 36 32 A 1.0001 1.0001 0 1 0 36 34 A 1.0001 1.0001 0 1 0 36 32 z M 56.736328 32.591797 L 56.392578 32.667969 L 56.294922 32.707031 L 55.708984 33.386719 L 55.902344 34.261719 L 56.71875 34.630859 L 57.0625 34.554688 L 57.160156 34.513672 L 57.746094 33.835938 L 57.552734 32.960938 L 56.736328 32.591797 z M 46 34 A 1.0001 1.0001 0 1 0 46 36 A 1.0001 1.0001 0 1 0 46 34 z M 52.705078 34.398438 L 52.367188 34.5 L 52.273438 34.548828 L 51.742188 35.271484 L 52.003906 36.128906 L 52.845703 36.431641 L 53.183594 36.330078 L 53.277344 36.28125 L 53.808594 35.560547 L 53.548828 34.703125 L 52.705078 34.398438 z M 37.078125 35.689453 L 36.277344 36.091797 L 36.119141 36.972656 L 36.730469 37.626953 L 37.078125 37.689453 L 37.878906 37.289062 L 38.037109 36.40625 L 37.425781 35.751953 L 37.078125 35.689453 z M 15.013672 36.429688 L 14.144531 36.644531 L 13.794922 37.470703 L 14.248047 38.244141 L 14.572266 38.380859 L 14.669922 38.402344 L 15.539062 38.189453 L 15.888672 37.363281 L 15.435547 36.589844 L 15.111328 36.453125 L 15.013672 36.429688 z M 48.822266 36.548828 L 48.496094 36.685547 L 48.408203 36.742188 L 47.951172 37.513672 L 48.296875 38.339844 L 49.166016 38.558594 L 49.490234 38.423828 L 49.580078 38.367188 L 50.035156 37.595703 L 49.691406 36.767578 L 48.822266 36.548828 z M 23.076172 37.001953 L 22.724609 37.039062 L 22.628906 37.066406 L 21.96875 37.671875 L 22.060547 38.5625 L 22.828125 39.025391 L 23.177734 38.988281 L 23.275391 38.960938 L 23.935547 38.355469 L 23.84375 37.464844 L 23.076172 37.001953 z M 18.941406 37.105469 L 18.101562 37.416016 L 17.845703 38.275391 L 18.380859 38.994141 L 18.71875 39.09375 L 18.818359 39.105469 L 19.660156 38.794922 L 19.914062 37.935547 L 19.378906 37.21875 L 19.041016 37.117188 L 18.941406 37.105469 z M 39 39 A 1.0001 1.0001 0 1 0 39 41 A 1.0001 1.0001 0 1 0 39 39 z M 45.167969 39.017578 L 44.851562 39.175781 L 44.767578 39.238281 L 44.365234 40.039062 L 44.767578 40.841797 L 45.648438 40.998047 L 45.964844 40.841797 L 46.048828 40.777344 L 46.451172 39.976562 L 46.048828 39.175781 L 45.167969 39.017578 z M 51 40 A 1.0001 1.0001 0 1 0 51 42 A 1.0001 1.0001 0 1 0 51 40 z M 41.720703 41.773438 L 41.417969 41.953125 L 41.337891 42.023438 L 40.996094 42.849609 L 41.453125 43.621094 L 42.34375 43.714844 L 42.646484 43.535156 L 42.726562 43.464844 L 43.070312 42.636719 L 42.611328 41.867188 L 41.720703 41.773438 z M 54.21875 42.451172 L 53.417969 42.853516 L 53.259766 43.736328 L 53.871094 44.390625 L 54.21875 44.451172 L 55.019531 44.050781 L 55.177734 43.167969 L 54.566406 42.513672 L 54.21875 42.451172 z M 58 44 A 1.0001 1.0001 0 1 0 58 46 A 1.0001 1.0001 0 1 0 58 44 z M 38.507812 44.800781 L 38.21875 45.001953 L 38.144531 45.078125 L 37.865234 45.929688 L 38.378906 46.662109 L 39.273438 46.691406 L 39.5625 46.488281 L 39.636719 46.414062 L 39.917969 45.5625 L 39.404297 44.828125 L 38.507812 44.800781 z M 44 45 A 1.0001 1.0001 0 1 0 44 47 A 1.0001 1.0001 0 1 0 44 45 z M 36.029297 47.949219 A 1.0001 1.0001 0 0 0 35.269531 48.314453 C 35.239231 48.350263 35.228018 48.363336 35.236328 48.353516 A 1.0005681 1.0005681 0 1 0 36.763672 49.646484 C 36.793972 49.610674 36.803222 49.597602 36.794922 49.607422 A 1.0001 1.0001 0 0 0 36.029297 47.949219 z M 46.283203 48.150391 L 45.482422 48.552734 L 45.324219 49.435547 L 45.935547 50.089844 L 46.283203 50.150391 L 47.083984 49.75 L 47.242188 48.867188 L 46.628906 48.212891 L 46.283203 48.150391 z M 29.158203 49.089844 C 30.414576 50.732996 31.725934 51.733341 32.537109 52.259766 C 30.687063 54.652795 28.714645 57.520494 27.121094 60.460938 C 26.874629 60.915718 26.662385 61.369447 26.435547 61.824219 C 26.812432 58.921835 27.375655 56.7052 27.900391 54.808594 C 28.473237 52.738091 29.011378 50.968329 29.158203 49.089844 z M 49.386719 50.509766 L 48.585938 50.912109 L 48.427734 51.792969 L 49.041016 52.447266 L 49.386719 52.509766 L 50.1875 52.109375 L 50.345703 51.226562 L 49.734375 50.572266 L 49.386719 50.509766 z M 53 52 A 1.0001 1.0001 0 1 0 53 54 A 1.0001 1.0001 0 1 0 53 52 z" fill="currentColor"></path>
</svg>